<mxfile host="app.diagrams.net" modified="2024-03-29T03:00:06.100Z" agent="Mozilla/5.0 (Windows NT 10.0; Win64; x64) AppleWebKit/537.36 (KHTML, like Gecko) Chrome/123.0.0.0 Safari/537.36" etag="sV4KHylKJ9gIEGp8ho-J" version="24.2.1" type="device">
  <diagram id="Qago6mBxmL6A3aa1LmM0" name="Page-1">
    <mxGraphModel dx="2219" dy="557" grid="1" gridSize="10" guides="1" tooltips="1" connect="1" arrows="1" fold="1" page="1" pageScale="1" pageWidth="1169" pageHeight="1654" math="0" shadow="0">
      <root>
        <mxCell id="0" />
        <mxCell id="1" parent="0" />
        <mxCell id="ctWxJvIFAZrD0krlZutH-1" value="User" style="shape=umlLifeline;perimeter=lifelinePerimeter;whiteSpace=wrap;html=1;container=1;dropTarget=0;collapsible=0;recursiveResize=0;outlineConnect=0;portConstraint=eastwest;newEdgeStyle={&quot;edgeStyle&quot;:&quot;elbowEdgeStyle&quot;,&quot;elbow&quot;:&quot;vertical&quot;,&quot;curved&quot;:0,&quot;rounded&quot;:0};fillColor=#bac8d3;strokeColor=#23445d;shadow=1;" parent="1" vertex="1">
          <mxGeometry x="70" y="527" width="100" height="713" as="geometry" />
        </mxCell>
        <mxCell id="ctWxJvIFAZrD0krlZutH-2" value="" style="html=1;points=[[0,0,0,0,5],[0,1,0,0,-5],[1,0,0,0,5],[1,1,0,0,-5]];perimeter=orthogonalPerimeter;outlineConnect=0;targetShapes=umlLifeline;portConstraint=eastwest;newEdgeStyle={&quot;curved&quot;:0,&quot;rounded&quot;:0};fillColor=#bac8d3;strokeColor=#23445d;shadow=1;" parent="ctWxJvIFAZrD0krlZutH-1" vertex="1">
          <mxGeometry x="45" y="70" width="10" height="70" as="geometry" />
        </mxCell>
        <mxCell id="ctWxJvIFAZrD0krlZutH-3" value="Register Page UI" style="shape=umlLifeline;perimeter=lifelinePerimeter;whiteSpace=wrap;html=1;container=1;dropTarget=0;collapsible=0;recursiveResize=0;outlineConnect=0;portConstraint=eastwest;newEdgeStyle={&quot;edgeStyle&quot;:&quot;elbowEdgeStyle&quot;,&quot;elbow&quot;:&quot;vertical&quot;,&quot;curved&quot;:0,&quot;rounded&quot;:0};fillColor=#bac8d3;strokeColor=#23445d;shadow=1;" parent="1" vertex="1">
          <mxGeometry x="230" y="527" width="100" height="713" as="geometry" />
        </mxCell>
        <mxCell id="ctWxJvIFAZrD0krlZutH-4" value="" style="html=1;points=[[0,0,0,0,5],[0,1,0,0,-5],[1,0,0,0,5],[1,1,0,0,-5]];perimeter=orthogonalPerimeter;outlineConnect=0;targetShapes=umlLifeline;portConstraint=eastwest;newEdgeStyle={&quot;curved&quot;:0,&quot;rounded&quot;:0};fillColor=#bac8d3;strokeColor=#23445d;shadow=1;" parent="ctWxJvIFAZrD0krlZutH-3" vertex="1">
          <mxGeometry x="45" y="70" width="10" height="80" as="geometry" />
        </mxCell>
        <mxCell id="ctWxJvIFAZrD0krlZutH-5" value="" style="html=1;points=[[0,0,0,0,5],[0,1,0,0,-5],[1,0,0,0,5],[1,1,0,0,-5]];perimeter=orthogonalPerimeter;outlineConnect=0;targetShapes=umlLifeline;portConstraint=eastwest;newEdgeStyle={&quot;curved&quot;:0,&quot;rounded&quot;:0};fillColor=#bac8d3;strokeColor=#23445d;shadow=1;" parent="ctWxJvIFAZrD0krlZutH-3" vertex="1">
          <mxGeometry x="45" y="210" width="10" height="30" as="geometry" />
        </mxCell>
        <mxCell id="ctWxJvIFAZrD0krlZutH-6" value="" style="html=1;points=[[0,0,0,0,5],[0,1,0,0,-5],[1,0,0,0,5],[1,1,0,0,-5]];perimeter=orthogonalPerimeter;outlineConnect=0;targetShapes=umlLifeline;portConstraint=eastwest;newEdgeStyle={&quot;curved&quot;:0,&quot;rounded&quot;:0};fillColor=#bac8d3;strokeColor=#23445d;shadow=1;" parent="ctWxJvIFAZrD0krlZutH-3" vertex="1">
          <mxGeometry x="45" y="553" width="10" height="33" as="geometry" />
        </mxCell>
        <mxCell id="ctWxJvIFAZrD0krlZutH-7" value="200- account created" style="html=1;verticalAlign=bottom;endArrow=open;dashed=1;endSize=8;curved=0;rounded=0;shadow=1;" parent="ctWxJvIFAZrD0krlZutH-3" edge="1">
          <mxGeometry relative="1" as="geometry">
            <mxPoint x="185" y="564" as="sourcePoint" />
            <mxPoint x="55" y="564" as="targetPoint" />
          </mxGeometry>
        </mxCell>
        <mxCell id="ctWxJvIFAZrD0krlZutH-8" value="" style="html=1;points=[[0,0,0,0,5],[0,1,0,0,-5],[1,0,0,0,5],[1,1,0,0,-5]];perimeter=orthogonalPerimeter;outlineConnect=0;targetShapes=umlLifeline;portConstraint=eastwest;newEdgeStyle={&quot;curved&quot;:0,&quot;rounded&quot;:0};fillColor=#bac8d3;strokeColor=#23445d;shadow=1;" parent="ctWxJvIFAZrD0krlZutH-3" vertex="1">
          <mxGeometry x="-115" y="574" width="10" height="20" as="geometry" />
        </mxCell>
        <mxCell id="ctWxJvIFAZrD0krlZutH-9" value="redirect to the successful&lt;div&gt;page&lt;/div&gt;" style="html=1;verticalAlign=bottom;endArrow=open;dashed=1;endSize=8;curved=0;rounded=0;shadow=1;" parent="ctWxJvIFAZrD0krlZutH-3" edge="1">
          <mxGeometry relative="1" as="geometry">
            <mxPoint x="44" y="582" as="sourcePoint" />
            <mxPoint x="-106" y="582" as="targetPoint" />
          </mxGeometry>
        </mxCell>
        <mxCell id="ctWxJvIFAZrD0krlZutH-10" value="API" style="shape=umlLifeline;perimeter=lifelinePerimeter;whiteSpace=wrap;html=1;container=1;dropTarget=0;collapsible=0;recursiveResize=0;outlineConnect=0;portConstraint=eastwest;newEdgeStyle={&quot;edgeStyle&quot;:&quot;elbowEdgeStyle&quot;,&quot;elbow&quot;:&quot;vertical&quot;,&quot;curved&quot;:0,&quot;rounded&quot;:0};fillColor=#bac8d3;strokeColor=#23445d;shadow=1;" parent="1" vertex="1">
          <mxGeometry x="370" y="527" width="100" height="713" as="geometry" />
        </mxCell>
        <mxCell id="ctWxJvIFAZrD0krlZutH-11" value="" style="html=1;points=[[0,0,0,0,5],[0,1,0,0,-5],[1,0,0,0,5],[1,1,0,0,-5]];perimeter=orthogonalPerimeter;outlineConnect=0;targetShapes=umlLifeline;portConstraint=eastwest;newEdgeStyle={&quot;curved&quot;:0,&quot;rounded&quot;:0};fillColor=#bac8d3;strokeColor=#23445d;shadow=1;" parent="ctWxJvIFAZrD0krlZutH-10" vertex="1">
          <mxGeometry x="45" y="130" width="10" height="510" as="geometry" />
        </mxCell>
        <mxCell id="ctWxJvIFAZrD0krlZutH-12" value="send otp&amp;nbsp;&lt;div&gt;to email&lt;/div&gt;" style="html=1;verticalAlign=bottom;endArrow=block;curved=0;rounded=0;shadow=1;" parent="ctWxJvIFAZrD0krlZutH-10" edge="1">
          <mxGeometry x="0.2143" y="30" width="80" relative="1" as="geometry">
            <mxPoint x="54.99999999999977" y="259.0000000000001" as="sourcePoint" />
            <mxPoint x="55" y="299" as="targetPoint" />
            <Array as="points">
              <mxPoint x="100" y="259" />
              <mxPoint x="100" y="289" />
              <mxPoint x="100" y="299" />
            </Array>
            <mxPoint as="offset" />
          </mxGeometry>
        </mxCell>
        <mxCell id="ctWxJvIFAZrD0krlZutH-13" value="Database" style="shape=umlLifeline;perimeter=lifelinePerimeter;whiteSpace=wrap;html=1;container=1;dropTarget=0;collapsible=0;recursiveResize=0;outlineConnect=0;portConstraint=eastwest;newEdgeStyle={&quot;edgeStyle&quot;:&quot;elbowEdgeStyle&quot;,&quot;elbow&quot;:&quot;vertical&quot;,&quot;curved&quot;:0,&quot;rounded&quot;:0};fillColor=#bac8d3;strokeColor=#23445d;shadow=1;" parent="1" vertex="1">
          <mxGeometry x="520" y="527" width="100" height="713" as="geometry" />
        </mxCell>
        <mxCell id="ctWxJvIFAZrD0krlZutH-14" value="" style="html=1;points=[[0,0,0,0,5],[0,1,0,0,-5],[1,0,0,0,5],[1,1,0,0,-5]];perimeter=orthogonalPerimeter;outlineConnect=0;targetShapes=umlLifeline;portConstraint=eastwest;newEdgeStyle={&quot;curved&quot;:0,&quot;rounded&quot;:0};fillColor=#bac8d3;strokeColor=#23445d;shadow=1;" parent="ctWxJvIFAZrD0krlZutH-13" vertex="1">
          <mxGeometry x="45" y="140" width="10" height="40" as="geometry" />
        </mxCell>
        <mxCell id="ctWxJvIFAZrD0krlZutH-15" value="" style="html=1;points=[[0,0,0,0,5],[0,1,0,0,-5],[1,0,0,0,5],[1,1,0,0,-5]];perimeter=orthogonalPerimeter;outlineConnect=0;targetShapes=umlLifeline;portConstraint=eastwest;newEdgeStyle={&quot;curved&quot;:0,&quot;rounded&quot;:0};fillColor=#bac8d3;strokeColor=#23445d;shadow=1;" parent="ctWxJvIFAZrD0krlZutH-13" vertex="1">
          <mxGeometry x="45" y="373" width="10" height="30" as="geometry" />
        </mxCell>
        <mxCell id="ctWxJvIFAZrD0krlZutH-16" value="" style="html=1;points=[[0,0,0,0,5],[0,1,0,0,-5],[1,0,0,0,5],[1,1,0,0,-5]];perimeter=orthogonalPerimeter;outlineConnect=0;targetShapes=umlLifeline;portConstraint=eastwest;newEdgeStyle={&quot;curved&quot;:0,&quot;rounded&quot;:0};fillColor=#bac8d3;strokeColor=#23445d;shadow=1;" parent="ctWxJvIFAZrD0krlZutH-13" vertex="1">
          <mxGeometry x="45" y="527" width="10" height="30" as="geometry" />
        </mxCell>
        <mxCell id="ctWxJvIFAZrD0krlZutH-17" value="Visit" style="html=1;verticalAlign=bottom;endArrow=block;curved=0;rounded=0;shadow=1;" parent="1" edge="1">
          <mxGeometry width="80" relative="1" as="geometry">
            <mxPoint x="125" y="600.5" as="sourcePoint" />
            <mxPoint x="275" y="600.5" as="targetPoint" />
          </mxGeometry>
        </mxCell>
        <mxCell id="ctWxJvIFAZrD0krlZutH-18" value="Enter name.&lt;div&gt;email &amp;amp; password&lt;/div&gt;" style="html=1;verticalAlign=bottom;endArrow=block;curved=0;rounded=0;shadow=1;" parent="1" edge="1">
          <mxGeometry width="80" relative="1" as="geometry">
            <mxPoint x="125" y="636.0000000000001" as="sourcePoint" />
            <mxPoint x="275" y="636.0000000000001" as="targetPoint" />
          </mxGeometry>
        </mxCell>
        <mxCell id="ctWxJvIFAZrD0krlZutH-19" value="Register" style="html=1;verticalAlign=bottom;endArrow=block;curved=0;rounded=0;shadow=1;" parent="1" edge="1">
          <mxGeometry width="80" relative="1" as="geometry">
            <mxPoint x="125" y="660" as="sourcePoint" />
            <mxPoint x="275" y="660" as="targetPoint" />
          </mxGeometry>
        </mxCell>
        <mxCell id="ctWxJvIFAZrD0krlZutH-20" value="POST: auth/signUp&lt;div&gt;{name,email,pasword}&lt;/div&gt;" style="html=1;verticalAlign=bottom;endArrow=block;curved=0;rounded=0;shadow=1;" parent="1" edge="1">
          <mxGeometry width="80" relative="1" as="geometry">
            <mxPoint x="285" y="666" as="sourcePoint" />
            <mxPoint x="415" y="666" as="targetPoint" />
          </mxGeometry>
        </mxCell>
        <mxCell id="ctWxJvIFAZrD0krlZutH-21" value="findUser" style="html=1;verticalAlign=bottom;endArrow=block;curved=0;rounded=0;shadow=1;" parent="1" edge="1">
          <mxGeometry width="80" relative="1" as="geometry">
            <mxPoint x="425" y="677" as="sourcePoint" />
            <mxPoint x="565" y="677" as="targetPoint" />
          </mxGeometry>
        </mxCell>
        <mxCell id="ctWxJvIFAZrD0krlZutH-22" value="User" style="html=1;verticalAlign=bottom;endArrow=open;dashed=1;endSize=8;curved=0;rounded=0;shadow=1;" parent="1" edge="1">
          <mxGeometry relative="1" as="geometry">
            <mxPoint x="565.0000000000001" y="698.5" as="sourcePoint" />
            <mxPoint x="424.9999999999999" y="698.5" as="targetPoint" />
          </mxGeometry>
        </mxCell>
        <mxCell id="ctWxJvIFAZrD0krlZutH-23" value="ALT" style="shape=umlFrame;whiteSpace=wrap;html=1;pointerEvents=0;width=60;height=30;fillColor=#b1ddf0;strokeColor=#10739e;shadow=1;fontStyle=1" parent="1" vertex="1">
          <mxGeometry y="710" width="650" height="520" as="geometry" />
        </mxCell>
        <mxCell id="ctWxJvIFAZrD0krlZutH-24" value="&lt;b&gt;&lt;font color=&quot;#cc0000&quot;&gt;[Account Found]&lt;/font&gt;&lt;/b&gt;" style="text;html=1;align=center;verticalAlign=middle;resizable=0;points=[];autosize=1;strokeColor=none;fillColor=none;shadow=1;" parent="1" vertex="1">
          <mxGeometry x="-10" y="740" width="120" height="30" as="geometry" />
        </mxCell>
        <mxCell id="ctWxJvIFAZrD0krlZutH-25" value="409-acoount found" style="html=1;verticalAlign=bottom;endArrow=open;dashed=1;endSize=8;curved=0;rounded=0;shadow=1;" parent="1" edge="1">
          <mxGeometry relative="1" as="geometry">
            <mxPoint x="415" y="744.0000000000001" as="sourcePoint" />
            <mxPoint x="285" y="744.0000000000001" as="targetPoint" />
          </mxGeometry>
        </mxCell>
        <mxCell id="ctWxJvIFAZrD0krlZutH-26" value="account already exist" style="html=1;verticalAlign=bottom;endArrow=open;dashed=1;endSize=8;curved=0;rounded=0;shadow=1;" parent="1" edge="1">
          <mxGeometry relative="1" as="geometry">
            <mxPoint x="275" y="758" as="sourcePoint" />
            <mxPoint x="125" y="758" as="targetPoint" />
          </mxGeometry>
        </mxCell>
        <mxCell id="ctWxJvIFAZrD0krlZutH-27" value="" style="html=1;points=[[0,0,0,0,5],[0,1,0,0,-5],[1,0,0,0,5],[1,1,0,0,-5]];perimeter=orthogonalPerimeter;outlineConnect=0;targetShapes=umlLifeline;portConstraint=eastwest;newEdgeStyle={&quot;curved&quot;:0,&quot;rounded&quot;:0};fillColor=#bac8d3;strokeColor=#23445d;shadow=1;" parent="1" vertex="1">
          <mxGeometry x="115" y="750" width="10" height="20" as="geometry" />
        </mxCell>
        <mxCell id="ctWxJvIFAZrD0krlZutH-28" value="" style="endArrow=none;dashed=1;html=1;rounded=0;fillColor=#b1ddf0;strokeColor=#10739e;fontStyle=1;exitX=0;exitY=0.305;exitDx=0;exitDy=0;exitPerimeter=0;entryX=0.997;entryY=0.303;entryDx=0;entryDy=0;entryPerimeter=0;shadow=1;" parent="1" edge="1">
          <mxGeometry width="50" height="50" relative="1" as="geometry">
            <mxPoint x="1.9499999999997726" y="780.7399999999999" as="sourcePoint" />
            <mxPoint x="649.9999999999998" y="779.9999999999999" as="targetPoint" />
          </mxGeometry>
        </mxCell>
        <mxCell id="ctWxJvIFAZrD0krlZutH-29" value="200-otp sended" style="html=1;verticalAlign=bottom;endArrow=open;dashed=1;endSize=8;curved=0;rounded=0;entryX=1;entryY=0;entryDx=0;entryDy=5;entryPerimeter=0;shadow=1;" parent="1" edge="1">
          <mxGeometry relative="1" as="geometry">
            <mxPoint x="415" y="852" as="sourcePoint" />
            <mxPoint x="285" y="852" as="targetPoint" />
          </mxGeometry>
        </mxCell>
        <mxCell id="ctWxJvIFAZrD0krlZutH-30" value="" style="html=1;points=[[0,0,0,0,5],[0,1,0,0,-5],[1,0,0,0,5],[1,1,0,0,-5]];perimeter=orthogonalPerimeter;outlineConnect=0;targetShapes=umlLifeline;portConstraint=eastwest;newEdgeStyle={&quot;curved&quot;:0,&quot;rounded&quot;:0};fillColor=#bac8d3;strokeColor=#23445d;shadow=1;" parent="1" vertex="1">
          <mxGeometry x="275" y="840" width="10" height="70" as="geometry" />
        </mxCell>
        <mxCell id="ctWxJvIFAZrD0krlZutH-31" value="redirected to otp page" style="html=1;verticalAlign=bottom;endArrow=open;dashed=1;endSize=8;curved=0;rounded=0;shadow=1;" parent="1" edge="1">
          <mxGeometry relative="1" as="geometry">
            <mxPoint x="275" y="857" as="sourcePoint" />
            <mxPoint x="125" y="857" as="targetPoint" />
          </mxGeometry>
        </mxCell>
        <mxCell id="ctWxJvIFAZrD0krlZutH-32" value="" style="html=1;points=[[0,0,0,0,5],[0,1,0,0,-5],[1,0,0,0,5],[1,1,0,0,-5]];perimeter=orthogonalPerimeter;outlineConnect=0;targetShapes=umlLifeline;portConstraint=eastwest;newEdgeStyle={&quot;curved&quot;:0,&quot;rounded&quot;:0};fillColor=#bac8d3;strokeColor=#23445d;shadow=1;" parent="1" vertex="1">
          <mxGeometry x="115" y="841" width="10" height="59" as="geometry" />
        </mxCell>
        <mxCell id="ctWxJvIFAZrD0krlZutH-33" value="&lt;b&gt;&lt;font color=&quot;#66b2ff&quot;&gt;[Account Not Exist]&lt;/font&gt;&lt;/b&gt;" style="text;html=1;align=center;verticalAlign=middle;resizable=0;points=[];autosize=1;strokeColor=none;fillColor=none;shadow=1;" parent="1" vertex="1">
          <mxGeometry x="-5" y="780" width="130" height="30" as="geometry" />
        </mxCell>
        <mxCell id="ctWxJvIFAZrD0krlZutH-34" value="" style="html=1;points=[[0,0,0,0,5],[0,1,0,0,-5],[1,0,0,0,5],[1,1,0,0,-5]];perimeter=orthogonalPerimeter;outlineConnect=0;targetShapes=umlLifeline;portConstraint=eastwest;newEdgeStyle={&quot;curved&quot;:0,&quot;rounded&quot;:0};fillColor=#bac8d3;strokeColor=#23445d;shadow=1;" parent="1" vertex="1">
          <mxGeometry x="275" y="987" width="10" height="33" as="geometry" />
        </mxCell>
        <mxCell id="ctWxJvIFAZrD0krlZutH-35" value="" style="html=1;points=[[0,0,0,0,5],[0,1,0,0,-5],[1,0,0,0,5],[1,1,0,0,-5]];perimeter=orthogonalPerimeter;outlineConnect=0;targetShapes=umlLifeline;portConstraint=eastwest;newEdgeStyle={&quot;curved&quot;:0,&quot;rounded&quot;:0};fillColor=#bac8d3;strokeColor=#23445d;shadow=1;" parent="1" vertex="1">
          <mxGeometry x="115" y="1008" width="10" height="20" as="geometry" />
        </mxCell>
        <mxCell id="ctWxJvIFAZrD0krlZutH-36" value="failed to verify otp" style="html=1;verticalAlign=bottom;endArrow=open;dashed=1;endSize=8;curved=0;rounded=0;shadow=1;" parent="1" edge="1">
          <mxGeometry relative="1" as="geometry">
            <mxPoint x="274" y="1016" as="sourcePoint" />
            <mxPoint x="124" y="1016" as="targetPoint" />
          </mxGeometry>
        </mxCell>
        <mxCell id="ctWxJvIFAZrD0krlZutH-37" value="Enter otp" style="html=1;verticalAlign=bottom;endArrow=block;curved=0;rounded=0;shadow=1;" parent="1" edge="1">
          <mxGeometry width="80" relative="1" as="geometry">
            <mxPoint x="125" y="880" as="sourcePoint" />
            <mxPoint x="275" y="880" as="targetPoint" />
          </mxGeometry>
        </mxCell>
        <mxCell id="ctWxJvIFAZrD0krlZutH-38" value="POST: auth/signUp&lt;div&gt;{otp,email,password}&lt;/div&gt;" style="html=1;verticalAlign=bottom;endArrow=block;curved=0;rounded=0;shadow=1;" parent="1" edge="1">
          <mxGeometry width="80" relative="1" as="geometry">
            <mxPoint x="285" y="894.72" as="sourcePoint" />
            <mxPoint x="415" y="894.72" as="targetPoint" />
          </mxGeometry>
        </mxCell>
        <mxCell id="ctWxJvIFAZrD0krlZutH-39" value="save otp in database" style="html=1;verticalAlign=bottom;endArrow=block;curved=0;rounded=0;shadow=1;" parent="1" edge="1">
          <mxGeometry width="80" relative="1" as="geometry">
            <mxPoint x="425" y="846.78" as="sourcePoint" />
            <mxPoint x="565" y="846.78" as="targetPoint" />
          </mxGeometry>
        </mxCell>
        <mxCell id="ctWxJvIFAZrD0krlZutH-40" value="" style="html=1;points=[[0,0,0,0,5],[0,1,0,0,-5],[1,0,0,0,5],[1,1,0,0,-5]];perimeter=orthogonalPerimeter;outlineConnect=0;targetShapes=umlLifeline;portConstraint=eastwest;newEdgeStyle={&quot;curved&quot;:0,&quot;rounded&quot;:0};fillColor=#bac8d3;strokeColor=#23445d;shadow=1;" parent="1" vertex="1">
          <mxGeometry x="565" y="830" width="10" height="30" as="geometry" />
        </mxCell>
        <mxCell id="ctWxJvIFAZrD0krlZutH-41" value="retrive otp" style="html=1;verticalAlign=bottom;endArrow=open;dashed=1;endSize=8;curved=0;rounded=0;shadow=1;" parent="1" edge="1">
          <mxGeometry relative="1" as="geometry">
            <mxPoint x="565.0000000000001" y="910" as="sourcePoint" />
            <mxPoint x="424.9999999999999" y="910" as="targetPoint" />
          </mxGeometry>
        </mxCell>
        <mxCell id="ctWxJvIFAZrD0krlZutH-42" value="compare&lt;div&gt;otp&lt;/div&gt;" style="html=1;verticalAlign=bottom;endArrow=block;curved=0;rounded=0;shadow=1;" parent="1" edge="1">
          <mxGeometry x="0.1538" y="30" width="80" relative="1" as="geometry">
            <mxPoint x="424.9999999999998" y="924.0000000000001" as="sourcePoint" />
            <mxPoint x="425" y="964" as="targetPoint" />
            <Array as="points">
              <mxPoint x="470" y="924" />
              <mxPoint x="470" y="954" />
              <mxPoint x="470" y="964" />
            </Array>
            <mxPoint as="offset" />
          </mxGeometry>
        </mxCell>
        <mxCell id="ctWxJvIFAZrD0krlZutH-43" value="ALT" style="shape=umlFrame;whiteSpace=wrap;html=1;pointerEvents=0;fillColor=#b1ddf0;strokeColor=#10739e;shadow=1;fontStyle=1" parent="1" vertex="1">
          <mxGeometry x="10" y="970" width="630" height="240" as="geometry" />
        </mxCell>
        <mxCell id="ctWxJvIFAZrD0krlZutH-44" value="" style="endArrow=none;dashed=1;html=1;rounded=0;entryX=1;entryY=0.336;entryDx=0;entryDy=0;entryPerimeter=0;exitX=0.002;exitY=0.334;exitDx=0;exitDy=0;exitPerimeter=0;fillColor=#b1ddf0;strokeColor=#10739e;shadow=1;" parent="1" source="ctWxJvIFAZrD0krlZutH-43" target="ctWxJvIFAZrD0krlZutH-43" edge="1">
          <mxGeometry width="50" height="50" relative="1" as="geometry">
            <mxPoint x="30.00000000000018" y="1050.48" as="sourcePoint" />
            <mxPoint x="632.4000000000003" y="1050" as="targetPoint" />
          </mxGeometry>
        </mxCell>
        <mxCell id="ctWxJvIFAZrD0krlZutH-45" value="400-otp mismatch" style="html=1;verticalAlign=bottom;endArrow=open;dashed=1;endSize=8;curved=0;rounded=0;entryX=1;entryY=0;entryDx=0;entryDy=5;entryPerimeter=0;shadow=1;" parent="1" edge="1">
          <mxGeometry relative="1" as="geometry">
            <mxPoint x="415" y="1003.22" as="sourcePoint" />
            <mxPoint x="285" y="1003.22" as="targetPoint" />
          </mxGeometry>
        </mxCell>
        <mxCell id="ctWxJvIFAZrD0krlZutH-46" value="&lt;b&gt;&lt;font color=&quot;#cc0000&quot;&gt;[OTP mismatch]&lt;/font&gt;&lt;/b&gt;" style="text;html=1;align=center;verticalAlign=middle;resizable=0;points=[];autosize=1;strokeColor=none;fillColor=none;shadow=1;" parent="1" vertex="1">
          <mxGeometry x="-2" y="998" width="120" height="30" as="geometry" />
        </mxCell>
        <mxCell id="ctWxJvIFAZrD0krlZutH-47" value="&lt;b&gt;&lt;font color=&quot;#66b2ff&quot;&gt;[Successfull]&lt;/font&gt;&lt;/b&gt;" style="text;html=1;align=center;verticalAlign=middle;resizable=0;points=[];autosize=1;strokeColor=none;fillColor=none;shadow=1;" parent="1" vertex="1">
          <mxGeometry y="1046" width="100" height="30" as="geometry" />
        </mxCell>
        <mxCell id="ctWxJvIFAZrD0krlZutH-48" value="save user" style="html=1;verticalAlign=bottom;endArrow=block;curved=0;rounded=0;shadow=1;" parent="1" edge="1">
          <mxGeometry width="80" relative="1" as="geometry">
            <mxPoint x="425" y="1070" as="sourcePoint" />
            <mxPoint x="565" y="1070" as="targetPoint" />
          </mxGeometry>
        </mxCell>
        <mxCell id="ctWxJvIFAZrD0krlZutH-49" value="" style="shape=umlDestroy;whiteSpace=wrap;html=1;strokeWidth=3;targetShapes=umlLifeline;fillColor=#bac8d3;strokeColor=#23445d;aspect=fixed;fontStyle=0;shadow=1;" parent="1" vertex="1">
          <mxGeometry x="115" y="1240" width="10" height="10" as="geometry" />
        </mxCell>
        <mxCell id="ctWxJvIFAZrD0krlZutH-50" value="" style="shape=umlDestroy;whiteSpace=wrap;html=1;strokeWidth=3;targetShapes=umlLifeline;fillColor=#bac8d3;strokeColor=#23445d;aspect=fixed;fontStyle=0;shadow=1;" parent="1" vertex="1">
          <mxGeometry x="275" y="1240" width="10" height="10" as="geometry" />
        </mxCell>
        <mxCell id="ctWxJvIFAZrD0krlZutH-51" value="" style="shape=umlDestroy;whiteSpace=wrap;html=1;strokeWidth=3;targetShapes=umlLifeline;fillColor=#bac8d3;strokeColor=#23445d;aspect=fixed;fontStyle=0;shadow=1;" parent="1" vertex="1">
          <mxGeometry x="415" y="1240" width="10" height="10" as="geometry" />
        </mxCell>
        <mxCell id="ctWxJvIFAZrD0krlZutH-52" value="" style="shape=umlDestroy;whiteSpace=wrap;html=1;strokeWidth=3;targetShapes=umlLifeline;fillColor=#bac8d3;strokeColor=#23445d;aspect=fixed;fontStyle=0;shadow=1;" parent="1" vertex="1">
          <mxGeometry x="565" y="1240" width="10" height="10" as="geometry" />
        </mxCell>
      </root>
    </mxGraphModel>
  </diagram>
</mxfile>
